# xmcd
#
# Track frame offsets:
# 200
# 48421
# 77175
# 111511
# 131859
# 168105
# 203300
#
# Disc length: 2962 seconds
#
# Revision: 0
# Processed by: cddbd v1.4PL0 Copyright (c) Steve Scherf et al.
# Submitted via: Audion 3.0.2 (http://www.panic.com/audion/)
#
DISCID=580b9007
DTITLE=SSSD - Home
DYEAR=1900
DGENRE=
TTITLE0=Home
TTITLE1=Is
TTITLE2=Where
TTITLE3=My 
TTITLE4=Hard
TTITLE5=Disc
TTITLE6=Was
EXTD=
EXTT0=
EXTT1=
EXTT2=
EXTT3=
EXTT4=
EXTT5=
EXTT6=
PLAYORDER=
